<?xml version="1.0" encoding="iso-8859-1"?>
<!-- Generator: Adobe Illustrator 11 Build 196, SVG Export Plug-In . SVG Version: 6.0.0 Build 78)  -->
<!DOCTYPE svg PUBLIC "-//W3C//DTD SVG 1.0//EN"    "http://www.w3.org/TR/2001/REC-SVG-20010904/DTD/svg10.dtd" [
	<!ENTITY ns_flows "http://ns.adobe.com/Flows/1.0/">
	<!ENTITY ns_svg "http://www.w3.org/2000/svg">
	<!ENTITY ns_xlink "http://www.w3.org/1999/xlink">
]>
<svg  xmlns="&ns_svg;" xmlns:xlink="&ns_xlink;" xmlns:a="http://ns.adobe.com/AdobeSVGViewerExtensions/3.0/"
	 width="580.198" height="583.34" viewBox="0 0 580.198 583.34" style="overflow:visible;enable-background:new 0 0 580.198 583.34"
	 xml:space="preserve">
	<metadata>
<?xpacket begin='﻿' id='W5M0MpCehiHzreSzNTczkc9d'?><x:xmpmeta xmlns:x='adobe:ns:meta/' x:xmptk='XMP toolkit 3.0-29, framework 1.6'>
<rdf:RDF xmlns:rdf='http://www.w3.org/1999/02/22-rdf-syntax-ns#' xmlns:iX='http://ns.adobe.com/iX/1.0/'>

 <rdf:Description rdf:about='uuid:4813ee58-44aa-11d9-9a36-000a95daffc2'
  xmlns:pdf='http://ns.adobe.com/pdf/1.3/'>
  <pdf:Producer>Adobe PDF library 6.66</pdf:Producer>
 </rdf:Description>

 <rdf:Description rdf:about='uuid:4813ee58-44aa-11d9-9a36-000a95daffc2'
  xmlns:photoshop='http://ns.adobe.com/photoshop/1.0/'>
  <photoshop:DateCreated>2004-10-21T00:00:00Z</photoshop:DateCreated>
  <photoshop:City>Peterborough</photoshop:City>
  <photoshop:State>Cambridgeshire</photoshop:State>
  <photoshop:Country>England</photoshop:Country>
 </rdf:Description>

 <rdf:Description rdf:about='uuid:4813ee58-44aa-11d9-9a36-000a95daffc2'
  xmlns:tiff='http://ns.adobe.com/tiff/1.0/'>
 </rdf:Description>

 <rdf:Description rdf:about='uuid:4813ee58-44aa-11d9-9a36-000a95daffc2'
  xmlns:xap='http://ns.adobe.com/xap/1.0/'
  xmlns:xapGImg='http://ns.adobe.com/xap/1.0/g/img/'>
  <xap:ModifyDate>2004-12-02T21:36:55Z</xap:ModifyDate>
  <xap:CreatorTool>Illustrator</xap:CreatorTool>
  <xap:MetadataDate>2004-11-23T21:29:55Z</xap:MetadataDate>
  <xap:CreateDate>2004-11-23T20:19:06Z</xap:CreateDate>
  <xap:Thumbnails>
   <rdf:Alt>
    <rdf:li rdf:parseType='Resource'>
     <xapGImg:format>JPEG</xapGImg:format>
     <xapGImg:width>256</xapGImg:width>
     <xapGImg:height>256</xapGImg:height>
     <xapGImg:image>/9j/4AAQSkZJRgABAgEASABIAAD/7QAsUGhvdG9zaG9wIDMuMAA4QklNA+0AAAAAABAASAAAAAEA&#xA;AQBIAAAAAQAB/+4ADkFkb2JlAGTAAAAAAf/bAIQABgQEBAUEBgUFBgkGBQYJCwgGBggLDAoKCwoK&#xA;DBAMDAwMDAwQDA4PEA8ODBMTFBQTExwbGxscHx8fHx8fHx8fHwEHBwcNDA0YEBAYGhURFRofHx8f&#xA;Hx8fHx8fHx8fHx8fHx8fHx8fHx8fHx8fHx8fHx8fHx8fHx8fHx8fHx8fHx8f/8AAEQgBAAEAAwER&#xA;AAIRAQMRAf/EAaIAAAAHAQEBAQEAAAAAAAAAAAQFAwIGAQAHCAkKCwEAAgIDAQEBAQEAAAAAAAAA&#xA;AQACAwQFBgcICQoLEAACAQMDAgQCBgcDBAIGAnMBAgMRBAAFIRIxQVEGE2EicYEUMpGhBxWxQiPB&#xA;UtHhMxZi8CRygvElQzRTkqKyY3PCNUQnk6OzNhdUZHTD0uIIJoMJChgZhJRFRqS0VtNVKBry4/PE&#xA;1OT0ZXWFlaW1xdXl9WZ2hpamtsbW5vY3R1dnd4eXp7fH1+f3OEhYaHiImKi4yNjo+Ck5SVlpeYmZ&#xA;qbnJ2en5KjpKWmp6ipqqusra6voRAAICAQIDBQUEBQYECAMDbQEAAhEDBCESMUEFURNhIgZxgZEy&#xA;obHwFMHR4SNCFVJicvEzJDRDghaSUyWiY7LCB3PSNeJEgxdUkwgJChgZJjZFGidkdFU38qOzwygp&#xA;0+PzhJSktMTU5PRldYWVpbXF1eX1RlZmdoaWprbG1ub2R1dnd4eXp7fH1+f3OEhYaHiImKi4yNjo&#xA;+DlJWWl5iZmpucnZ6fkqOkpaanqKmqq6ytrq+v/aAAwDAQACEQMRAD8A9U4q7FXYq7FXYq7FWP8A&#xA;mqRwLeMEhDyYjxIpmFqzyDsuz4jcoDTdZubNgrEyQd4yen+r4ZTizmPucnPpYz8iyu3uIriJZYm5&#xA;I3Q5sYyEhYdNOBiaKpkmLsVdirsVdirsVdirsVdirsVdirsVdirsVdirsVdirsVdirsVdirsVdir&#xA;sVdirsVdirsVdiqS+aIeVrFKP91vQ/Jh/ZmJq47AufoJVIjvYzmA7ZHaVqcljNXdoW/vE/iPfLsO&#xA;UwPk4+owDIPNl8UscsayRtyRxVWHhmzBBFh0cokGivwodirsVdirsVdirsVdirsVdirsVdirsVdi&#xA;rsVdirsVdirsVdirsVdirsVdirsVdirsVdiqG1C2+s2U0Pdl+H/WG4/HIZY8USG3DPhmCwjNQ9A7&#xA;FU20LVfq0voTH/R5DsT+yx7/ACzJ0+bhNHk4Wr0/GOIcwyrNi6d2KuxV2KuxV2KuxV2KuxV2KuxV&#xA;2KuxV2KuxV2KuxV2KuxV2KuxV2KuxV2KuxV2KuxV2KuxVh2tWv1bUJABRJP3ifJuv45q88OGTvNL&#xA;k4oDyQGUuS7FWTeXtU9aP6pMf3qD92T+0o7fMZn6bLfpLqdbp+E8Q5J1mW4DsVdirsVdirsVdirs&#xA;VdirsVdirsVdirsVdirsVdirsVdirsVdirsVdirsVdirsVdirsVSjzJZ+rZidR8cBqf9U9cxdVC4&#xA;33OboclSrvYtmvdw7FV0UrxSLJGeLoaqR4jCDRsMZRBFFmmm3yXtqsq7N0kXwYZtcWTjFuiz4jjl&#xA;SKyxpdirsVdirsVdirsVdirsVdirsVdirsVdirsVdirsVdirsVdirsVdirsVdirsVdirsVWuiujI&#xA;wqrAhh4g7YCLSDRsMIvbZrW6kgb9g7HxHY/dmpnDhNPQYsnHEFQyDY7FUdpGoNZXQYn9y/wyj28f&#xA;oy7Dk4D5OPqcPiR82YqwYBlNQdwR3GbR0RDeKuxV2KuxV2KuxV2KuxV2KuxV2KuxV2KuxV2KuxV2&#xA;KuxV2KuxV2KuxV2KuxV2KuxV2KpF5msuUaXaDdPgk/1T0P35h6rHtxOw0GWjwljmYLtUHe6rZ2bh&#xA;JSS5FeKipp45CWQRb8WnnMWFa1u7e6j9SBw69/EfMZKMgeTXkxygaIZT5b1Hmn1OQ/EgrET3XuPo&#xA;zP0uW/SXT67BR4x8U9zMde7FXYq7FXYq7FXYq7FXYq7FXYq7FXYq7FXYq7FVC4vrO3/vpVQ/yk7/&#xA;AHDfISyRjzLZDFKXIJdL5msFNI1eT3oAPxNfwyg6qPRyY6CZ50F9n5htrmdYTG0bOaKTQiuGGpEj&#xA;SMuilGN3aa5kuG7FXYq7FXYq7FXYq7FVksSSxPE4qjgqw9jgkLFJjIg2GEXds9tcyQP1Q0r4jsfp&#xA;GaiceE09BjmJxBDCNXlMmpXDeDcf+B+H+GYGQ3IvQ6aNYwo2l3NazCWI0I6jsR4HBGRBsM8mMTFF&#xA;mWl6msyx3VueMiEEr3Vh2OZuPJ1DotRg4SYy5M9sbtLu2SdP2h8S+DDqM3GOYkLeby4zCRBRGTa3&#xA;Yq7FXYq7FXYq7FXYq7FXYq7FXYqtd0RSzsFUdWJoBgJpIBPJKrvzJZxVWEGd/EbL95zHnqojlu5m&#xA;PQyPPZJrrXNQuKj1PTQ/sx7fj1zEnnlJz8ekhHpaXkkmp3JylyHYpTjy7pzS3AunFIoj8H+U39mZ&#xA;Wmx2b6BwdbmAjwjmWUZsHUOxV2KuxV2KuxV2KuxV2KpH5lsecS3aD4o/hk/1T0P0HMTVY7HE7DQ5&#xA;qPCeryO6blczN4ux/HNDLm9tjFRHuUsDNFabfyWVwJF3Q7SJ4j+uThPhLTnwjJGno3lrVUSVV5Vt&#xA;rmlD2Ddj/A5tdNlo+ReW12nJH9KLLc2TpXYq7FXYq7FXYq7FXYq7FXYqslmihQvK4RB1ZjTBKQG5&#xA;ZRiZGgkt75mjWq2icz/vx9h9A65iZNUP4XPxaAneSR3N7dXTcp5C/gOw+Q6ZiTmZc3YY8UYcgoZB&#xA;sdirsVTLSdIkvXDvVbZT8Td29ly/DhM/c4up1Ixih9TK4444o1jjUKiiiqO2bIAAUHSykSbK/Ch2&#xA;KuxV2KuxV2KuxV2KuxVbIiSIyOKowIYHuDgIvZIJBsPCrxeF5OnXjI4+5jnLyG5fRcRuIPko4Gbs&#xA;VZR5cSRbIsZQ8bGqoK1Q9wScysI2dPriDPlu9E0PUPrdoA5rNF8L+JHZvpzc6fJxR8w8xq8PBLbk&#xA;Uxy9xXYq7FXYq7FXYq7FVskkcaF5GCIOrE0GAkDmmMSTQSS+8zRpVLReZ/342y/QOpzEyaofwufi&#xA;0JO8khuLq4uX5zSF27V6D5DtmHKZlzdlDHGIoBSyLN2KuxV2Kp1pOgPNxmugUh6rH0Zvn4DMrDp7&#xA;3PJwNRrBHaPNkiIqKEQBVUUCjYAZngU6okncrsKHYq7FXYq7FXYq7FXYq7FXYq7FXhurx+nq17HS&#xA;nC4lWnhRyM5jKKkR5voemN4on+iPuQmQbknTVJp/M76fEaW9rb85/eRyvEfQpyN7uedOI6YZD9Up&#xA;be4WyPTdRksp+Y+KNtpE8R/XLYT4S6nPgGQV1Z3oeqRxTxXMbcoJBRyP5T/Q5scGWjfR53V6ckGJ&#xA;5hmwIIqNwehzbPPuZgoLMaKNyT0AxUBJb7zn5csiVe8WVx+xDWQ/evw/ecxp6zHHq7DD2Xnyco0P&#xA;PZIrr80rNSRaWMkng0rLH+C88xZdpDoHY4/Z+Z+qQHu3/UlU/wCZutvUQwQRDxIZm+8sB+GUS7Rm&#xA;eQDmQ7BwjmZFAS+ffNMlaXYjB7JHGPxKk5UdblPVyY9j6Yfw38ShX82+ZXry1CYV/lIX/iIGVnVZ&#xA;D/EW4dm6cfwBDTa7rM9PWvZpKdOTsafjkJZpnmS2x0mKPKIHwWLq2pL0uH+k1/Xg8SXeyOmx9wRE&#xA;PmLUYyOZWUeDAD8Vpkhmk1S0WM8tmTW06z28cyigkUNTwr2zKibFuoyQ4ZEdyphYr4YJZpBHEhdz&#xA;0UYYxJNBjKQiLLJtL0CK3pLcUkn6hf2V/qcz8WnEdzzdTqNYZbR2Cb5lOE7FXYq7FXYq7FXYq7FX&#xA;Yq7FXYq7FXYq8X81Rel5j1FaUrO7/wDBnl/HOc1IrJL3ve9nyvBA/wBH7kqJAFTsB1OUOYxLyPJ9&#xA;bvNX1I7m4mAQnstWan3EZXB3vbEfDhjx/wA2LLcsdEmOkaq1nLwept3PxjwP8wyzHk4fc4up0/iC&#xA;x9T0E+brfTvL/ruPWmQiOBAdn5AlTXwABzbDViGO+ZeZ/k2WXPwjYcz5PP8AV/MWr6tIWu52Mdar&#xA;Avwxr8lH6zvmry55zO5el02ixYR6Rv39Umlv7GI8ZbmKM+DOqn8TlFh2EcM5cok/BYuqaYxot3CT&#xA;4CRD/HHiCTp8g/hl8iiVdHXkjBlPcGowtRBHNvFDsVdirsVRWn2Et5OI0FEG8j9gMlCBkWnNmGON&#xA;lmMUaRRrGgoiAKo9htmcBTopSJNlMtO0a5vCGp6cHeQ9/wDVHfLsWAy9zi59VGG3MsnsrC2s4+EK&#xA;0J+053Y/M5sMeMRGzqMuaUzZROWNTsVdirsVdirsVdirsVdirsVdirsVdirsVeTfmDB6Xmed6UEy&#xA;RyD/AIEJ/wAa5oddGspe07FnenA7iR+lh2tzmDR72YbMkEhX58TT8cwpcnfaSHFliP6QY7+WxH6M&#xA;uhXcT1I+aDIwdr2//eR/q/pZfk3QuxVCeYvMiaZo6PP8fpMVt460LM+4HyFDjKezfodAc2UiO183&#xA;lmqeY9X1Jybi4YRnpBGSsYH+qOv05STb22n0GLCPSN+880swOYyLTPI2tX0azOFtYmFVMteRH+qA&#xA;T99MIiS6nUdsYcZoeo+X603i/Lq7i+OLU/Tkr1VGG3zD5LgcCXb0JbHHY9/7EZFo3nay/wB5tTju&#xA;UH7E/Ik/8EG/4ljRaJavR5PqxmPu/H6E60m61qQtHqdksDKKieJ1aNz4calhkgT1dbqceEb45cXk&#xA;RuP0JlknERunaXcXr/COEIPxSHp8h4nJwxmTRn1EcY82XadpoRVtrSMsfAbknxJzNx4+gdHnz36p&#xA;Fk+neXIoqSXdJJOojH2R8/HM/FpgN5Ooz60naOwToAAAAUA6DMtwG8VdirsVdirsVdirsVdirsVd&#xA;irsVdirsVdirsVed/mlaUurG7A2dHiY/6h5D/iZzUdpR3Beo9n8nplHzv8fJ5d5uYr5cviP5APvY&#xA;DNVPk9h2WL1EPew7yFrMVlqElrOwSK7ChXPQSLXj/wAFWn3ZCJp6DtrSHJjEo84/c9Jy15B2KsA/&#xA;Mm7LXlpaA7RxmVh7uaD/AIhlc+b1PYGKoSn3mvl/aw3IPQMl8iaTHe6s08y84bRQ/EioLk0Sv4n6&#xA;MlEWXT9s6k48XCOcvu6vTMteOdirsVR2maVNevU1SBT8Un8F98shjMnH1GpGMeabr5at/rZcsTb7&#xA;cYh1r3qfDLvAF+TgnXy4a/i72W6Z5bmkRTKPq9uPsoBRiPYdsz8WmJ57B0uo1wB29UmSWtnbWsfC&#xA;BAo7nufmczoQERQdVkyymbJV8m1uxV2KuxV2KuxV2KuxV2KuxV2KuxV2KuxV2KuxV2KsZ/MKw+te&#xA;XZJVFXtHWYePH7Lfg1fozC18OLHfc7bsXNwZwP5wp4p5nhM3l+/QCpERen+p8X8M0EuT6B2dPhzw&#xA;Pn9+zyLKnvE707zjr1iqxrP60S9I5hzFPDls344RIh1ufsrBk3Io+X4pk+mfmLYykJfwtbMdvVT4&#xA;0+kfaH45MTdNqOwpx3xni8uRYz5yvYbvXpZYJBLCEjCOpBBHAHYj3OQlzdz2TiOPABIUbP3pHgdk&#xA;9N8h6abTRBO4pJdt6nvwGyf1+nLIB43trUcebhHKO3x6skybqHYqmmk6K90RNNVLft2LfL2y3Hjv&#xA;c8nD1OqENh9TNNO0W5uFVYIxHAuwc7KB7eP0ZsMeAy5cnQ59VGJ9Rssl0/RbSzo9PVmH+7G7fIds&#xA;zseCMfe6nNqpT25BMMvcZ2KuxV2KuxV2KuxV2KuxV2KuxV2KuxV2KuxV2KuxV2KuxVTnhjngkglH&#xA;KOVSjr4qwoRglEEUWUJmJBHMPEdd0eXT764065Wqiqgno8bdG+kZzWbEYSMS+g6TVDLAZI/2F4hr&#xA;Olz6ZqEtpKD8BrG5/aQ/ZbMQin0bSamObGJj8FBYuS7FXYq2pAIJFQDuPHFBZhbfmPcRIkbWEZjQ&#xA;BVVHKUA2AFQ2SE3QZOwYyN8Zv3JrZ/mLpErBbmKW3J/aoHUfOnxf8LkhNwsvYWWP0kS+z8fN6j5S&#xA;8s2+t2keoW00d3av9mVW/dAjqD+0SO4p88z9PpfEFjk8b2lr5aeRxyBjIfN6FY+XbK3AMg9Zx05C&#xA;iD5L/XNrj00Y893mMutnLlsmgAAoOmZLht4q7FXYq7FXYq7FXYq7FXYq7FXYq7FXYq7FXYq7FXYq&#xA;7FXYq7FXYqxvzM/lq7h43yC4eKvF0biU8f3g7ffmDqZYpD1bu10A1ED6Dw39vweK+e/8FRxUui0o&#xA;FTCpIMvyjI4t9+2aTLwdHv8Asb84T6Nu/u+P4t5pKnlmQn0Zbu28A6Ryj7w0ZzHewidSOYhL4kfo&#xA;KpZ+XkvYbue1vFNvZR+rcSyI6BQTRR+18TdhhAtjl1xxmMZR9UzQAIP4CTYHYOxV2KuxV6L+R3nK&#xA;40Lzlb6e8lNN1h1tp4yfhErbQuPfmePyOZugzmGQDpLZ5T2v7LjqdIcgH7zF6h7v4h8t/g+qc6R8&#xA;YdirsVdirsVdirsVdirsVdirsVdirsVdirsVdirsVdirsVdirsVS+/1qztKrX1Zh/ute3zPbKcme&#xA;Mfe5OHSyn5BhuvecH+KNnq3a3jNB/szmsz6sl3uj7MHMfM/oeS+dPzEkidrW3cS3Y2IH91F9H7TZ&#xA;rcmUl7fsnsISHFLaP2n9jzK6uri6nae4kaWZzVnY1OUvY48cYR4YigpAEmg3J6DFmzfzTb/4e8q2&#xA;GgD4b28P1vU/HlQERn/UqB8wcsmOEAPO9nT/ADWqnn/gh6Yfr+O/2MIyt6N2KuxV2KqtpcyW11Dc&#xA;xGkkDrIh/wApCGH6sWvJjE4mJ5EU+545EkjWRDVHAZT4gio652ANi35ykCDRXYUOxV2KuxV2KuxV&#xA;2KuxV2KuxV2KuxV2KuxV2KuxV2KuxVQu722tE5zuF8F6sfkMhPIIjdsx4pTNAMZ1XzLK6Nxb6tbj&#xA;7TVoxHuf6ZgZdST5B22n0IB/nSYRqXmCSWsVpVI+8n7R+Xhmunmvk9Bg0QG8ty8886+Z3sI/qNox&#xA;F5MtZJB1jQ/8bNmLKT1XZHZwynjn9A+0/qecEkmp3J6nK3rXYpZr+XvlC6utatr/AFCExadasJqS&#xA;bGV1/u0VTuatQ/LLcUbO/J53tztSMMMseM3kltt07z8kr896sNS8yXMqSCWOI+kjqaqaElip8ORN&#xA;PbITNlzextN4OniCKJ3/AB8GPZF2rdDQGmx6HFDWKXYq7FX3TaxNDawxNQtGioxHSqgDbOvgKAD8&#xA;4ZJcUie8quSYOxV2KuxV2KuxV2KuxV2KuxV2KuxV2KuxV2KuxVpmCgsxoBuSegxUBJNR8xolY7Oj&#xA;v0Mp+yPkO+YmXVVtF2GDQk7y+TFtT1RYVNxdSF5G+yCasx8BmvyZOpdxg05l6YjZiV/qVxeyVkNI&#xA;x9iMdB/U5hzmZO7w4I4xtzQmQbmC+Z/JmrXWoz39q6XAmIb0ieLigpQV+EgU8crlEvTdndrYoYxj&#xA;l6a69GMNpV1Zy/7krO4SIdSo4/c5VlyDuBqY5B+7lG/x0TnT/MvlzTQHtNIZpx/u2WQM1fYkNT6B&#xA;kgQOjr8/Z+oy7TyenuAUdX886tfxtDFS0gbZhGSXI8C/9AMTIls0vY+LEbPqPny+THMi7dk3lD8u&#xA;/NXmq5SPTbN1tWNJNQlBS3QdyXI+I/5K1OXYdPPIaiP1On7T7c02iiTkkOL+aN5H4fpOz0TzJ+Wd&#xA;hp+mQ6Pu3o1Vbqnx+v1Z6eD9ePhlubT8Gzymh7fyZcpzd/T+j3fDveR6zo2oaPfPZX0RilUBlqCA&#xA;yHoy17HMUxI5vdaTV488BOBsIHA5KO0K1N1ren2wHL1rmKOn+s4GECzTjazJwYZy7ok/Y+3LeeO4&#xA;hSaM1RxUf0zroyEhYfnicDE0VTJMXYq7FXYq7FXYq7FXYq7FXYq7FXYq7FXYq7FULfaja2ScpW+I&#xA;/ZjG7HK8mUQ5t2LBLIdmL6jq91emjHhD2iXp9PjmvyZjP3O3w6aOP3pXd3UdrbvPJ9lB08T2GUSl&#xA;Qty8eMzkAGHXd3NdTmWU1J6DsB4DMKUiTZd7ixiAoKORbG1VmYKoLMegG5xUmkyt/L1/MoZgsIPZ&#xA;yeX3Cv45aMJLiT1sI8t0ZH5W7y3H0Kv8ScmMHm0S7Q7gqR+SvL0kiiaxiupGIA9ZFapPtTJx08b5&#xA;MD2tnA2mYjyJZlH+WPkBY1VtAsWZQAWMCVJHfpm1GixV9IdHL2g1xP8AfZP9MUXZ+RfJdkwe10Kw&#xA;ikHSQW0XMf7IrXJx0uIfwj5NGXtfV5BUsuQj+sf1p4qhQFUUUbADoBl7riWPeZ7AVS8Va9Fk27/s&#xA;t/DMHV4/4nZ6DNziwTzd5R07zLpxtrkencx1NrdAVaNj+tT3H8c1+XEJB6TsztPJpMnFHeJ5jv8A&#xA;29xfPuuaHqOiajJYX8fpzx7gjdXU9HQ91Oa2USDRfUdHrMeoxjJjNg/Z5FkH5Vaab3znaMRWOzV7&#xA;mT/Yjiv/AA7rlmCNyDq/aTUeHo5DrKo/j4Avpny5qHpTG0kP7uU1jPg/h9Ob3S5KPCer5DrcNjiH&#xA;MMmzPdS7FXYq7FXYq7FXYq7FXYq7FXYq7FXYq7FUl1TzDHDWG0o8vQydVX5eJzEy6kDaLn6fRmW8&#xA;uTG5ZZJXMkjF3bcsdzmCSTuXaRiAKC3AyQeq2T3loYkbi4IZa9CR2OQyR4g36fKMcrKQr5d1ImhC&#xA;KPEtt+Fcx/Bk7I67GjrfyxGN7iUt/koKD7zlgwd7jz7QP8ITW2srW2FII1TxPUn6TvlsYgcnCnll&#xA;PmVfJNbsVTHQbf1tSjr9mKsh+jp+NMv08bmHF1k+HGfNl+bN0jsVdiqlc26XEDwv9lxQ+3gfoyMo&#xA;8QpnCZjIEdGEXEEkEzwyCjoaHNTKJBou/hMSAIY95u8o6d5l0421yPTuY6m1ugKtGx/Wp7j+OU5c&#xA;QkHa9mdp5NJk4o7xPMd/7e4sX/L3y4/lKK/n1bj+kJ39KGOMhz6MdfiBHQOxrv2AzHxDgsnm7ntz&#xA;XjXGEcX0RFm+8/qZno+tNdzyKVEbpR4qHeg9/EHL8eWy8/qdLwRHXvej6ZereWiS/tj4ZB4MOubv&#xA;Fk4o28rnxcEqReWNLsVdirsVdirsVdirsVdirsVdiqyWWOKNpJGCooqzHpgJAFlMYkmgxjVddlue&#xA;UMBMdv0J6M3z8Bmvzagy2HJ2+n0ghvLeSU5jOa7FXYq7FXYq7FXYq7FXYqyTyvalYZLlh/eHinyX&#xA;r+OZ+khsS6rX5LIj3J5mW692KuxV2KpD5l0/kovIx8S/DMB4dm+jMPVY/wCIOx0OavQfgwPXtRvr&#xA;dliiHpxuNpRuT4j2zVZZkbPR6PBCW53Pcx1mZiWYkk7knrmM7UClaxuTbXUcw6KfiHip2P4ZKMqN&#xA;teXHxxIekeX9QFvdKpb9xPQE9qn7LZtdPk4ZeReU1mHij5hl2bN0rsVdirsVdirsVdirsVdirsVU&#xA;7i4it4mllbii9TkZSERZZQgZGgxHU9VmvpN/hgU/BH/E++a3LmMz5O7wacYx5oHKXIdirsVdirsV&#xA;dirsVdirsVRWnafLe3AjTZBvI/ZRlmPGZmmnNmGONlmcMSQxLFGKIgAUewzaxAAoOilIyNlfhYux&#xA;V2KuxVa6K6MjCqsCGB7g4CLSDRsMD8waKoeS0k+yfihk/Uf4HNRnw0aej0Wq5SHxYJcQS28zQyij&#xA;oaH+ua4ijT0cJiQsKeBky3QrgzacgJq0RMZ+jp+GZmI3F0mshw5D57vQNEvvrdkpY1lj+CT38D9O&#xA;bjBk4o+bzWqxcE/IphlzjOxV2KuxV2KuxV2KuxV2KsQ1rUmvLkqp/cRkiMeJ7tmsz5eI+Tu9Lg4I&#xA;+ZS7KHKdirsVdirsVdirsVdiraqzEKoJY9ANzigmk1sfLt3OQ0/7iLwP2z9Hb6cycemkeezh5dbG&#xA;O0dyyS1tYLWIRQrxUdfEnxJzPhARFB1WTIZmyrZJg7FXYq7FXYq7FUu1vT/rdqSg/fxVZPfxX6co&#xA;z4+KPmHK0ubglvyLANW0pb2Oq0W4T7DHv/knNRkx8Xvek02o8M/0WKSRyRSNHIpV1NGU9sxCKd1G&#xA;QIsJ95WY8blewKEfM1/pl+Dq63tAfT8WWaLffVL1SxpFJ8EnyPQ/QczsGThl5Ol1WLjh5hmObR0b&#xA;sVdirsVdirsVdirsVdirH5PKtXPp3FE7BlqR9xzCOk7i7KPaG24VYfK1qu8szyeygKP+NslHSDqW&#xA;Eu0JdAqv5a01uhkX5MP4g5I6WDAa7J5KLeVbc/ZncfMA/wBMidIO9sHaEuoU28qfy3PyBT/m7I/k&#xA;/NkO0P6P2rf8Kyf8tI/4E/1wflD3p/lAdzh5Ueu9yKf6n9uP5M96/wAoDuVE8qxD7dwx+SgfrJyQ&#xA;0g72J7QPQIqLy5pqfaDyf6zf800ywaWAapa7IfJHwWltAKQxLH7qAD9+XRgByDjTySlzNquSYOxV&#xA;2KuxV2KuxV2KuxV2KsW8w6d6E/1iMfupT8VOz/25rtTi4TY5F2+iz8Q4TzDHrzTbS7A9ZPiHRxs2&#xA;YcoA83Z4s8ocl1nY29nGY4VoCasTuSffDGIjyRlyymbKIyTWy/Q7361YqGNZYvgf6Oh+7Nnp58Uf&#xA;c6PV4uCfkUxy9xnYq7FXYq7FXYq7FXYq7FXYq7FXYq7FXYq7FXYq7FXYq7FXYq7FXYq7FXYq7FXY&#xA;q7FVK6to7mB4ZBVXFPkexGRnESFFnjmYmwwq7tZLW4eGQfEh6+I7EZqZwMTRd9jyCcbCjkWx2Kpj&#xA;oN59WvlVjSOb4G+Z+yfvy/Tz4Ze9xdXi4oeYZfmzdI7FXYq7FXYq7FXYq7FXYq7FXYq7FXYq7FXY&#xA;q7FXYq7FXYq7FXYq7FXYq7FXYq7FXYq7FUr13TPrUHqxis8Q2/yl7j+mY+oxcQscw5mkz8EqPIsT&#xA;zWu5dirsVZrpV39asY5SauBxk/1h1+/rm1wz4o26DUY+CZCLy1pdirsVdirsVdirsVdirsVdirsV&#xA;dirsVdirsVdirsVdirsVdirsVdirsVdirsVdirsVdirGPMGl+jJ9aiH7qQ/vAP2WP8Dmv1OKjY5O&#xA;20eo4hwnmEmzFc92Kp35Yu+Fw9sx+GUck/1l6/hmXpJ0adfr8dxEu5kuZ7qnYq7FXYq7FXYq7FXY&#xA;q7FXYq7FXYq7FXYq7FXYq7FXYq7FXYq7FXYq7FXYq7FXYq7FXYqsljSWNo5ByRxRgfA4CARRTGRB&#xA;sMO1TTpLG4KGpibeJ/EeHzGavLiMC73T5hkjfVB5U3qtrO1vcRzL1jYH5juMlCVG2GSHFEjvZ0rB&#xA;lDKaqRUH2ObgF54im8UOxV2KuxV2KuxV2KuxV2KuxV2KuxV2KuxV2KuxV2KuxV2KuxV2KuxV2Kux&#xA;V2KuxV2KuxVD3tlDeW7QyDY7q3dT2IyGSAkKLZiymErDDryzmtJ2hlFCOh7EeIzVzgYmi73FkExY&#xA;UMg2My0Wb1dMgJNSo4H/AGJoPwzaYJXAOi1UayFHZc47sVdirsVdirsVdirsVdirsVdirsVdirsV&#xA;dirsVdirsVdirsVdirsVdirsVdirsVdirsVdiqF1DT4L2H05BRh9iQdVOV5MYmKLdhzHGbDE77Tr&#xA;qzcrKvwfsyD7J+nNbkxGPN3OLPGY2ZH5djdNNXmKcmZlB8MztMKg6vWyBybJnmQ4jsVdirsVdirs&#xA;Vf/Z</xapGImg:image>
    </rdf:li>
   </rdf:Alt>
  </xap:Thumbnails>
 </rdf:Description>

 <rdf:Description rdf:about='uuid:4813ee58-44aa-11d9-9a36-000a95daffc2'
  xmlns:xapMM='http://ns.adobe.com/xap/1.0/mm/'>
  <xapMM:DocumentID>uuid:f29864b9-3d8f-11d9-9429-000a95daffc2</xapMM:DocumentID>
 </rdf:Description>

 <rdf:Description rdf:about='uuid:4813ee58-44aa-11d9-9a36-000a95daffc2'
  xmlns:xapRights='http://ns.adobe.com/xap/1.0/rights/'>
  <xapRights:Marked>True</xapRights:Marked>
  <xapRights:WebStatement>http://creativecommons.org/licenses/by-sa/2.0/</xapRights:WebStatement>
 </rdf:Description>

 <rdf:Description rdf:about='uuid:4813ee58-44aa-11d9-9a36-000a95daffc2'
  xmlns:dc='http://purl.org/dc/elements/1.1/'>
  <dc:format>image/svg+xml</dc:format>
  <dc:rights>
   <rdf:Alt>
    <rdf:li xml:lang='x-default'>This work is licensed to the public under the Creative Commons Attribution-ShareAlike License.</rdf:li>
   </rdf:Alt>
  </dc:rights>
  <dc:title>
   <rdf:Alt>
    <rdf:li xml:lang='x-default'>It Went Wrong</rdf:li>
   </rdf:Alt>
  </dc:title>
  <dc:description>
   <rdf:Alt>
    <rdf:li xml:lang='x-default'>An accident from producing 1969.&#xD;http://www.Rhea Myers.org/art/1969</rdf:li>
   </rdf:Alt>
  </dc:description>
  <dc:creator>
   <rdf:Seq>
    <rdf:li>Rhea Myers</rdf:li>
   </rdf:Seq>
  </dc:creator>
  <dc:subject>
   <rdf:Bag>
    <rdf:li>Abstract digital art</rdf:li>
   </rdf:Bag>
  </dc:subject>
 </rdf:Description>

 <rdf:Description rdf:about='uuid:4813ee58-44aa-11d9-9a36-000a95daffc2'
  xmlns:cc='http://web.resource.org/cc/'>
  <cc:license rdf:resource='http://creativecommons.org/licenses/by-sa/2.0/'/>
 </rdf:Description>

</rdf:RDF>
</x:xmpmeta>
                                                                                                                                                                                                                                                                                                                                                                                                                                                                                                                                                                                                                                                                                                                                                                                                                                                                                                                                                                                                                                                                                                                                                                                                                                                                                                                                                                                                                                                                                                                                                                                                                                                                                                                                                                                                                                                                                                                                                                                                                                                                                                                                <?xpacket end='w'?>
			</metadata>
		<g id="Layer_1">
			<g>
				<g>
					<path style="fill:#FCC0A7;" d="M301.292,287.698c-4.299-7.447-39.788-14.645-133.793,39.627
						C73.494,381.598-9.08,444.042,0.806,461.164l0.014,0.024c9.886,17.124,105.251-23.162,199.258-77.435
						c94.006-54.273,105.518-88.605,101.218-96.052L301.292,287.698L301.292,287.698z"/>
					<path style="fill:#FCC0A7;" d="M278.905,297.16c4.3,7.447,39.788,14.645,133.794-39.627
						c94.006-54.272,176.58-116.717,166.694-133.84l-0.015-0.024c-9.885-17.123-105.251,23.163-199.257,77.436
						c-94.006,54.272-105.519,88.604-101.219,96.051L278.905,297.16L278.905,297.16z"/>
					<path style="fill:#FCC0A7;" d="M295.708,301.293c7.447-4.299,14.645-39.788-39.627-133.793
						C201.808,73.494,139.363-9.08,122.24,0.806l-0.024,0.014c-17.123,9.886,23.163,105.251,77.436,199.257
						c54.272,94.006,88.604,105.519,96.051,101.219L295.708,301.293L295.708,301.293z"/>
					<path style="fill:#FCC0A7;" d="M284.12,282.046c-7.447,4.299-14.645,39.789,39.627,133.793
						c54.272,94.006,116.717,176.58,133.841,166.694l0.023-0.014c17.123-9.886-23.163-105.252-77.436-199.258
						c-54.272-94.006-88.604-105.518-96.051-101.219L284.12,282.046L284.12,282.046z"/>
					<path style="fill:#FB805F;" d="M457.045,193.513c-10.079-17.458-91.872,26.182-118.395,41.494
						c-45.659,26.361-63.666,53.33-58.82,61.724c4.846,8.395,37.201,6.289,82.86-20.072c26.522-15.312,105.213-64.324,95.135-81.783
						L457.045,193.513L457.045,193.513z"/>
					<path style="fill:#FB805F;" d="M192.061,123.153c-17.458,10.079,26.182,91.872,41.494,118.394
						c26.361,45.66,53.33,63.667,61.724,58.82c8.395-4.846,6.288-37.2-20.072-82.86c-15.312-26.522-64.324-105.213-81.783-95.134
						L192.061,123.153L192.061,123.153z"/>
					<path style="fill:#FB805F;" d="M123.153,391.344c10.08,17.459,91.872-26.181,118.394-41.493
						c45.66-26.36,63.667-53.329,58.821-61.724c-4.847-8.394-37.201-6.288-82.861,20.073
						c-26.522,15.312-105.213,64.323-95.134,81.782L123.153,391.344L123.153,391.344z"/>
					<path style="fill:#FB805F;" d="M387.767,460.187c17.457-10.079-26.183-91.872-41.494-118.394
						c-26.36-45.66-53.33-63.667-61.724-58.82c-8.395,4.846-6.289,37.2,20.072,82.859c15.312,26.523,64.324,105.214,81.782,95.135
						L387.767,460.187L387.767,460.187z"/>
					<path style="fill:none;" d="M350.46,396.707c7.386-4.264,1.145-36.025-19.207-71.276
						c-20.352-35.252-41.169-44.721-46.114-41.866c-5.696,3.289-7.154,25.617,13.199,60.87
						C318.689,379.686,343.074,400.972,350.46,396.707L350.46,396.707z"/>
					<path style="fill:#FF0000;" d="M393.566,230.819c-4.265-7.386-36.025-1.145-71.276,19.207
						c-35.252,20.353-44.721,41.17-41.866,46.114c3.288,5.696,25.616,7.155,60.869-13.198
						C376.544,262.59,397.831,238.206,393.566,230.819L393.566,230.819z"/>
					<path style="fill:#FF0000;" d="M229.367,186.632c-7.386,4.265-1.145,36.025,19.207,71.277
						c20.353,35.252,41.17,44.721,46.114,41.866c5.696-3.289,7.155-25.617-13.198-60.87
						C261.138,203.654,236.753,182.368,229.367,186.632L229.367,186.632z"/>
					<path style="fill:#FF0000;" d="M186.632,354.038c4.264,7.386,36.025,1.146,71.276-19.206
						c35.252-20.353,44.721-41.17,41.866-46.115c-3.289-5.696-25.617-7.154-60.87,13.199
						C203.654,322.268,182.368,346.651,186.632,354.038L186.632,354.038z"/>
					<path style="fill:#FF0000;" d="M350.46,396.707c7.386-4.264,1.145-36.025-19.207-71.276
						c-20.352-35.252-41.169-44.721-46.114-41.866c-5.696,3.289-7.154,25.617,13.199,60.87
						C318.689,379.686,343.074,400.972,350.46,396.707L350.46,396.707z"/>
					<path style="fill:#FCC0A7;" d="M200.077,383.754c94.006-54.273,103.44-100.581,95.133-102.807l-0.005-0.001l0,0
						c-8.306-2.226-38.49,17.779-66.586,122.627S-9.08,444.042,0.806,461.164"/>
					<path style="fill:#FCC0A7;" d="M380.122,201.104c-94.006,54.272-102.366,100.136-94.061,102.362l0.005,0.001l0,0
						c8.306,2.226,32.627,8.337,126.633-45.935"/>
					<path style="fill:#FCC0A7;" d="M199.652,200.077c54.272,94.006,98.991,102.743,101.217,94.437l0.001-0.004l0,0
						c2.226-8.306,9.482-33.004-44.79-127.01"/>
					<path style="fill:#FCC0A7;" d="M380.175,383.263c-54.272-94.006-98.882-102.48-101.108-94.174l-0.001,0.004l0,0
						c-2.226,8.307-9.591,32.742,44.681,126.747"/>
					<path style="fill:#FB805F;" d="M457.045,193.513c-10.079-17.458-164.755-5.823-172.682,23.758
						c-13.646,50.926-7.309,82.729,2.053,85.237c9.363,2.509,30.615,0.511,76.274-25.851"/>
					<path style="fill:#FB805F;" d="M192.061,123.153c-17.458,10.079-6.969,165.131,22.613,173.058
						c50.926,13.646,82.728,7.31,85.238-2.053c2.508-9.362,1.654-30.991-24.706-76.65"/>
					<path style="fill:#FB805F;" d="M241.547,349.851c45.66-26.36,62.67-65.438,53.308-67.946
						c-9.363-2.509-30.751,21.858-44.398,72.784c-7.927,29.582-138.163,17.835-128.084,35.294"/>
					<path style="fill:#FB805F;" d="M346.273,341.793c-26.36-45.66-63.74-61.711-66.249-52.349s-1.764,30.729,24.597,76.388"/>
					<path style="fill:none;" d="M350.46,396.707c7.386-4.264,31.93-99.729-7.388-110.265c-39.318-10.536-60.734-2.511-62.212,3.004
						c-1.702,6.353-2.875,19.736,17.478,54.989"/>
					<path style="fill:#FF0000;" d="M393.566,230.819c-4.265-7.386-99.616-30.676-110.151,8.642
						c-10.536,39.318-2.511,60.734,3.004,62.212c6.353,1.702,23.173-13.055,33.708-52.374
						C330.663,209.981,397.831,238.206,393.566,230.819"/>
					<path style="fill:#FF0000;" d="M229.367,186.632c-7.386,4.265-31.821,99.992,7.497,110.528
						c39.318,10.536,60.734,2.511,62.212-3.004c1.701-6.353-13.056-23.173-52.375-33.709
						C207.383,249.912,236.753,182.368,229.367,186.632"/>
					<path style="fill:#FF0000;" d="M186.632,354.038c4.264,7.386,100.689,30.231,111.225-9.086
						c10.536-39.318,2.511-60.734-3.004-62.212c-6.353-1.702-23.172,13.055-33.708,52.374
						C250.608,374.432,182.368,346.651,186.632,354.038"/>
					<path style="fill:#FF0000;" d="M350.46,396.707c7.386-4.264,31.93-99.729-7.388-110.265
						c-39.318-10.536-60.734-2.511-62.212,3.004c-1.702,6.353-2.875,19.736,17.478,54.989"/>
				</g>
			</g>
		</g>
	</svg>
